<?xml version="1.0" standalone="no"?><!DOCTYPE svg PUBLIC "-//W3C//DTD SVG 1.1//EN" "http://www.w3.org/Graphics/SVG/1.1/DTD/svg11.dtd"><svg t="1776798217640" class="icon" viewBox="0 0 1024 1024" version="1.1" xmlns="http://www.w3.org/2000/svg" p-id="5624" width="32" height="32" xmlns:xlink="http://www.w3.org/1999/xlink"><path d="M842.091 194H815v70h27.091C857.606 264 870 276.977 870 292.491v143.322C870 451.074 854.927 454 842.091 454H413v224h70V525h359.091c25.904 0 49.132-7.544 66.765-21.455C929.446 487.301 941 463.124 941 435.813V292.491C941 238.19 896.392 194 842.091 194z" fill="#808C9B" p-id="5625"></path><path d="M815 126.308C815 91.344 785.882 63 749.717 63H143.849C107.684 63 78 91.344 78 126.308v200.475C78 361.747 107.684 390 143.849 390h605.868C785.882 390 815 361.747 815 326.783V126.308z" fill="#F29440" p-id="5626"></path><path d="M393.317 678C365.462 678 343 698.482 343 724.461V914.58c0 25.979 22.462 47.42 50.317 47.42h109.277C530.448 962 553 940.559 553 914.58V724.461C553 698.482 530.448 678 502.594 678H393.317z" fill="#BDCCD4" p-id="5627"></path></svg>